<?xml version="1.0" encoding="UTF-8" standalone="no"?><svg xmlns="http://www.w3.org/2000/svg" xmlns:xlink="http://www.w3.org/1999/xlink" contentScriptType="application/ecmascript" contentStyleType="text/css" height="487px" preserveAspectRatio="none" style="width:486px;height:487px;" version="1.1" viewBox="0 0 486 487" width="486px" zoomAndPan="magnify"><defs><filter height="300%" id="f1wanji7b5n52n" width="300%" x="-1" y="-1"><feGaussianBlur result="blurOut" stdDeviation="2.0"/><feColorMatrix in="blurOut" result="blurOut2" type="matrix" values="0 0 0 0 0 0 0 0 0 0 0 0 0 0 0 0 0 0 .4 0"/><feOffset dx="4.0" dy="4.0" in="blurOut2" result="blurOut3"/><feBlend in="SourceGraphic" in2="blurOut3" mode="normal"/></filter></defs><g><!--cluster Legacy--><polygon fill="#DDDDDD" filter="url(#f1wanji7b5n52n)" points="14,16,76,16,83,38.2969,464,38.2969,464,475,14,475,14,16" style="stroke: #000000; stroke-width: 1.5;"/><line style="stroke: #000000; stroke-width: 1.5;" x1="14" x2="83" y1="38.2969" y2="38.2969"/><text fill="#000000" font-family="sans-serif" font-size="14" font-weight="bold" lengthAdjust="spacingAndGlyphs" textLength="56" x="18" y="30.9951">Legacy</text><!--class ProductCategoryInterface--><rect fill="#FEFECE" filter="url(#f1wanji7b5n52n)" height="73.6094" id="ProductCategoryInterface" style="stroke: #A80036; stroke-width: 1.5;" width="292" x="22" y="151"/><ellipse cx="83.25" cy="167" fill="#B4A7E5" rx="11" ry="11" style="stroke: #A80036; stroke-width: 1.0;"/><path d="M79.1719,162.7656 L79.1719,160.6094 L86.5625,160.6094 L86.5625,162.7656 L84.0938,162.7656 L84.0938,170.8438 L86.5625,170.8438 L86.5625,173 L79.1719,173 L79.1719,170.8438 L81.6406,170.8438 L81.6406,162.7656 L79.1719,162.7656 Z "/><text fill="#000000" font-family="sans-serif" font-size="12" font-style="italic" lengthAdjust="spacingAndGlyphs" textLength="161" x="103.75" y="171.1543">ProductCategoryInterface</text><line style="stroke: #A80036; stroke-width: 1.5;" x1="23" x2="313" y1="183" y2="183"/><line style="stroke: #A80036; stroke-width: 1.5;" x1="23" x2="313" y1="191" y2="191"/><text fill="#000000" font-family="sans-serif" font-size="11" lengthAdjust="spacingAndGlyphs" textLength="280" x="28" y="205.2104">ProductCategoryInterface : getSymLinkCategory()</text><text fill="#000000" font-family="sans-serif" font-size="11" lengthAdjust="spacingAndGlyphs" textLength="177" x="28" y="218.0151">Long : getSymLinkCategoryId();</text><!--class CatalogItemInterface--><rect fill="#FEFECE" filter="url(#f1wanji7b5n52n)" height="60.8047" id="CatalogItemInterface" style="stroke: #A80036; stroke-width: 1.5;" width="163" x="86.5" y="285"/><ellipse cx="101.5" cy="301" fill="#B4A7E5" rx="11" ry="11" style="stroke: #A80036; stroke-width: 1.0;"/><path d="M97.4219,296.7656 L97.4219,294.6094 L104.8125,294.6094 L104.8125,296.7656 L102.3438,296.7656 L102.3438,304.8438 L104.8125,304.8438 L104.8125,307 L97.4219,307 L97.4219,304.8438 L99.8906,304.8438 L99.8906,296.7656 L97.4219,296.7656 Z "/><text fill="#000000" font-family="sans-serif" font-size="12" font-style="italic" lengthAdjust="spacingAndGlyphs" textLength="131" x="115.5" y="305.1543">CatalogItemInterface</text><line style="stroke: #A80036; stroke-width: 1.5;" x1="87.5" x2="248.5" y1="317" y2="317"/><line style="stroke: #A80036; stroke-width: 1.5;" x1="87.5" x2="248.5" y1="325" y2="325"/><text fill="#000000" font-family="sans-serif" font-size="11" lengthAdjust="spacingAndGlyphs" textLength="112" x="92.5" y="339.2104">Long : getParentId()</text><!--class ItemInterface--><rect fill="#FEFECE" filter="url(#f1wanji7b5n52n)" height="60.8047" id="ItemInterface" style="stroke: #A80036; stroke-width: 1.5;" width="115" x="110.5" y="406"/><ellipse cx="125.5" cy="422" fill="#B4A7E5" rx="11" ry="11" style="stroke: #A80036; stroke-width: 1.0;"/><path d="M121.4219,417.7656 L121.4219,415.6094 L128.8125,415.6094 L128.8125,417.7656 L126.3438,417.7656 L126.3438,425.8438 L128.8125,425.8438 L128.8125,428 L121.4219,428 L121.4219,425.8438 L123.8906,425.8438 L123.8906,417.7656 L121.4219,417.7656 Z "/><text fill="#000000" font-family="sans-serif" font-size="12" font-style="italic" lengthAdjust="spacingAndGlyphs" textLength="83" x="139.5" y="426.1543">ItemInterface</text><line style="stroke: #A80036; stroke-width: 1.5;" x1="111.5" x2="224.5" y1="438" y2="438"/><line style="stroke: #A80036; stroke-width: 1.5;" x1="111.5" x2="224.5" y1="446" y2="446"/><text fill="#000000" font-family="sans-serif" font-size="11" lengthAdjust="spacingAndGlyphs" textLength="84" x="116.5" y="460.2104">Long : getOid()</text><!--class CatalogItem--><rect fill="#FEFECE" filter="url(#f1wanji7b5n52n)" height="60.8047" id="CatalogItem" style="stroke: #A80036; stroke-width: 1.5;" width="107" x="349.5" y="157.5"/><ellipse cx="364.5" cy="173.5" fill="#A9DCDF" rx="11" ry="11" style="stroke: #A80036; stroke-width: 1.0;"/><path d="M364.6094,168.8438 L363.4531,173.9219 L365.7813,173.9219 L364.6094,168.8438 Z M363.125,166.6094 L366.1094,166.6094 L369.4688,179 L367.0156,179 L366.25,175.9375 L362.9688,175.9375 L362.2188,179 L359.7813,179 L363.125,166.6094 Z "/><text fill="#000000" font-family="sans-serif" font-size="12" font-style="italic" lengthAdjust="spacingAndGlyphs" textLength="75" x="378.5" y="177.6543">CatalogItem</text><line style="stroke: #A80036; stroke-width: 1.5;" x1="350.5" x2="455.5" y1="189.5" y2="189.5"/><line style="stroke: #A80036; stroke-width: 1.5;" x1="350.5" x2="455.5" y1="197.5" y2="197.5"/><text fill="#000000" font-family="sans-serif" font-size="11" lengthAdjust="spacingAndGlyphs" textLength="82" x="355.5" y="211.7104">String : getId()</text><rect fill="#FEFECE" filter="url(#f1wanji7b5n52n)" height="33.9688" style="stroke: #A80036; stroke-width: 1.5;" width="69" x="386.5" y="50"/><text fill="#000000" font-family="sans-serif" font-size="12" lengthAdjust="spacingAndGlyphs" textLength="55" x="393.5" y="63.1387">category</text><line style="stroke: #A80036; stroke-width: 1.5;" x1="387.5" x2="454.5" y1="67.9688" y2="67.9688"/><rect fill="#FEFECE" filter="url(#f1wanji7b5n52n)" height="33.9688" style="stroke: #A80036; stroke-width: 1.5;" width="93" x="258.5" y="50"/><text fill="#000000" font-family="sans-serif" font-size="12" lengthAdjust="spacingAndGlyphs" textLength="79" x="265.5" y="63.1387">categoryLink</text><line style="stroke: #A80036; stroke-width: 1.5;" x1="259.5" x2="350.5" y1="67.9688" y2="67.9688"/><!--class ProductCategory--><rect fill="#FEFECE" filter="url(#f1wanji7b5n52n)" height="48" id="ProductCategory" style="stroke: #A80036; stroke-width: 1.5;" width="137" x="86.5" y="43"/><ellipse cx="101.5" cy="59" fill="#ADD1B2" rx="11" ry="11" style="stroke: #A80036; stroke-width: 1.0;"/><path d="M104.4688,64.6406 Q103.8906,64.9375 103.25,65.0781 Q102.6094,65.2344 101.9063,65.2344 Q99.4063,65.2344 98.0781,63.5938 Q96.7656,61.9375 96.7656,58.8125 Q96.7656,55.6875 98.0781,54.0313 Q99.4063,52.375 101.9063,52.375 Q102.6094,52.375 103.25,52.5313 Q103.9063,52.6875 104.4688,52.9844 L104.4688,55.7031 Q103.8438,55.125 103.25,54.8594 Q102.6563,54.5781 102.0313,54.5781 Q100.6875,54.5781 100,55.6563 Q99.3125,56.7188 99.3125,58.8125 Q99.3125,60.9063 100,61.9844 Q100.6875,63.0469 102.0313,63.0469 Q102.6563,63.0469 103.25,62.7813 Q103.8438,62.5 104.4688,61.9219 L104.4688,64.6406 Z "/><text fill="#000000" font-family="sans-serif" font-size="12" lengthAdjust="spacingAndGlyphs" textLength="105" x="115.5" y="63.1543">ProductCategory</text><line style="stroke: #A80036; stroke-width: 1.5;" x1="87.5" x2="222.5" y1="75" y2="75"/><line style="stroke: #A80036; stroke-width: 1.5;" x1="87.5" x2="222.5" y1="83" y2="83"/><!--link ProductCategory to ProductCategoryInterface--><path d="M157.5995,91.1953 C158.8341,102.6869 160.3667,116.9515 161.8725,130.9672 " fill="none" id="ProductCategory-ProductCategoryInterface" style="stroke: #A80036; stroke-width: 1.0;"/><polygon fill="none" points="168.8451,130.3382,164.0217,150.9716,154.9252,131.8338,168.8451,130.3382" style="stroke: #A80036; stroke-width: 1.0;"/><!--link ProductCategory to CatalogItem--><path d="M207.1375,91.1196 C238.86,105.9316 280.5262,125.6259 331.2794,150.7759 " fill="none" id="ProductCategory-CatalogItem" style="stroke: #A80036; stroke-width: 1.0;"/><polygon fill="none" points="334.4372,144.5285,349.2227,159.7071,328.1988,157.0618,334.4372,144.5285" style="stroke: #A80036; stroke-width: 1.0;"/><!--link ProductCategoryInterface to CatalogItemInterface--><path d="M168,225.221 C168,237.5178 168,251.4174 168,264.5594 " fill="none" id="ProductCategoryInterface-CatalogItemInterface" style="stroke: #A80036; stroke-width: 1.0;"/><polygon fill="none" points="175.0001,264.8909,168,284.8909,161.0001,264.8909,175.0001,264.8909" style="stroke: #A80036; stroke-width: 1.0;"/><!--link CatalogItemInterface to ItemInterface--><path d="M168,346.0334 C168,358.0708 168,372.2256 168,385.7182 " fill="none" id="CatalogItemInterface-ItemInterface" style="stroke: #A80036; stroke-width: 1.0;"/><polygon fill="none" points="175.0001,385.9764,168,405.9764,161.0001,385.9763,175.0001,385.9764" style="stroke: #A80036; stroke-width: 1.0;"/><!--
@startuml
package "Legacy" #DDDDDD {
	interface ProductCategoryInterface {
		ProductCategoryInterface : getSymLinkCategory()
		Long : getSymLinkCategoryId();
	}

	interface CatalogItemInterface {
		Long : getParentId()
	}

	interface ItemInterface {
		Long : getOid()
	}

    abstract class CatalogItem {
		String : getId()
	}

	object category
	object categoryLink

	ProductCategory - -|> ProductCategoryInterface
    ProductCategory - -|> CatalogItem

	ProductCategoryInterface - -|> CatalogItemInterface
	CatalogItemInterface - -|> ItemInterface

	class ProductCategory
}
@enduml

PlantUML version 1.2018.13(Mon Nov 26 17:11:51 UTC 2018)
(APACHE source distribution)
Java Runtime: OpenJDK Runtime Environment
JVM: OpenJDK 64-Bit Server VM
Java Version: 11.0.10+9-LTS
Operating System: Linux
OS Version: 5.4.0-1032-azure
Default Encoding: UTF-8
Language: en
Country: null
--></g></svg>